<svg width="241" height="79" viewBox="0 0 241 79" fill="none" xmlns="http://www.w3.org/2000/svg">
<rect x="70.6955" y="20.1954" width="139.609" height="39.6091" rx="19.8045" stroke="url(#paint0_linear_20_225)" stroke-width="0.609053"/>
<g filter="url(#filter0_f_20_225)">
<path d="M207.745 35.9558C207.745 44.8042 211.05 55.8482 154.873 51.9772C125.672 51.9772 102 44.8042 102 35.9558C102 27.1074 105.305 41.8491 158.177 20.7243C187.378 20.7243 207.745 19.9343 207.745 35.9558Z" fill="url(#paint1_linear_20_225)"/>
</g>
<g filter="url(#filter1_f_20_225)">
<path d="M207.745 35.9558C207.745 44.8042 211.05 55.8482 154.873 51.9772C125.672 51.9772 102 44.8042 102 35.9558C102 27.1074 105.305 41.8491 158.177 20.7243C187.378 20.7243 207.745 19.9343 207.745 35.9558Z" fill="url(#paint2_linear_20_225)"/>
</g>
<g filter="url(#filter2_f_20_225)">
<path d="M207.745 35.9558C207.745 44.8042 211.05 55.8482 154.873 51.9772C125.672 51.9772 102 44.8042 102 35.9558C102 27.1074 105.305 41.8491 158.177 20.7243C187.378 20.7243 207.745 19.9343 207.745 35.9558Z" fill="url(#paint3_linear_20_225)"/>
</g>
<rect y="20" width="241" height="41.9259" rx="20.963" fill="black"/>
<rect x="0.609053" y="20.6091" width="239.782" height="40.7078" rx="20.3539" stroke="white" stroke-opacity="0.1" stroke-width="1.21811"/>
<defs>
<filter id="filter0_f_20_225" x="76.3559" y="-4.92617" width="157.07" height="83.3433" filterUnits="userSpaceOnUse" color-interpolation-filters="sRGB">
<feFlood flood-opacity="0" result="BackgroundImageFix"/>
<feBlend mode="normal" in="SourceGraphic" in2="BackgroundImageFix" result="shape"/>
<feGaussianBlur stdDeviation="12.822" result="effect1_foregroundBlur_20_225"/>
</filter>
<filter id="filter1_f_20_225" x="92.3835" y="11.1014" width="125.015" height="51.2882" filterUnits="userSpaceOnUse" color-interpolation-filters="sRGB">
<feFlood flood-opacity="0" result="BackgroundImageFix"/>
<feBlend mode="normal" in="SourceGraphic" in2="BackgroundImageFix" result="shape"/>
<feGaussianBlur stdDeviation="4.80826" result="effect1_foregroundBlur_20_225"/>
</filter>
<filter id="filter2_f_20_225" x="98.7945" y="17.5124" width="112.193" height="38.4661" filterUnits="userSpaceOnUse" color-interpolation-filters="sRGB">
<feFlood flood-opacity="0" result="BackgroundImageFix"/>
<feBlend mode="normal" in="SourceGraphic" in2="BackgroundImageFix" result="shape"/>
<feGaussianBlur stdDeviation="1.60275" result="effect1_foregroundBlur_20_225"/>
</filter>
<linearGradient id="paint0_linear_20_225" x1="165.237" y1="20.4999" x2="145.338" y2="61.8292" gradientUnits="userSpaceOnUse">
<stop stop-color="white"/>
<stop offset="1" stop-color="white" stop-opacity="0"/>
</linearGradient>
<linearGradient id="paint1_linear_20_225" x1="197.832" y1="20.7243" x2="90.1743" y2="61.5141" gradientUnits="userSpaceOnUse">
<stop stop-color="white"/>
<stop offset="1" stop-color="white" stop-opacity="0"/>
</linearGradient>
<linearGradient id="paint2_linear_20_225" x1="197.832" y1="20.7243" x2="90.1743" y2="61.5141" gradientUnits="userSpaceOnUse">
<stop stop-color="white"/>
<stop offset="1" stop-color="white" stop-opacity="0"/>
</linearGradient>
<linearGradient id="paint3_linear_20_225" x1="197.832" y1="20.7243" x2="90.1743" y2="61.5141" gradientUnits="userSpaceOnUse">
<stop stop-color="white"/>
<stop offset="1" stop-color="white" stop-opacity="0"/>
</linearGradient>
</defs>
</svg>
